<?xml version="1.0" encoding="utf-8"?>
<!-- Generator: Adobe Illustrator 18.1.1, SVG Export Plug-In . SVG Version: 6.00 Build 0)  -->
<svg version="1.1" id="Layer_1" xmlns="http://www.w3.org/2000/svg" xmlns:xlink="http://www.w3.org/1999/xlink" x="0px" y="0px"
	 viewBox="-255 347 100 100" enable-background="new -255 347 100 100" xml:space="preserve">
<defs>
	<filter id="Adobe_OpacityMaskFilter" filterUnits="userSpaceOnUse" x="-254.5" y="347.3" width="99.4" height="99.4">
		<feFlood  style="flood-color:white;flood-opacity:1" result="back"/>
		<feBlend  in="SourceGraphic" in2="back" mode="normal"/>
	</filter>
</defs>
<mask maskUnits="userSpaceOnUse" x="-254.5" y="347.3" width="99.4" height="99.4" id="SVGID_1_">
	<g filter="url(#Adobe_OpacityMaskFilter)">
		<g>
			<path d="M-244,400.8l-0.6-8.4c-0.1,1.4-0.4,2.7-0.8,4c-0.4,1.2-0.8,2.2-1.2,2.8c-0.5,0.7-0.9,1.1-1.4,1.4c-0.5,0.3-1,0.4-1.4,0.4
				c-0.3,0-0.5-0.1-0.7-0.2c-0.2-0.1-0.2-0.3-0.2-0.4c0-0.1,0.1-0.3,0.2-0.4s0.3-0.2,0.4-0.2c0.1,0,0.3,0,0.5,0.1
				c0.2,0.1,0.4,0.1,0.5,0.1c0.2,0,0.5-0.1,0.8-0.3c0.4-0.3,0.8-0.8,1.2-1.5c0.4-0.7,0.7-1.7,1.1-2.9c0.3-1.3,0.5-2.5,0.6-3.7
				c-1.2,0-2.1,0.3-2.9,0.9c-0.6,0.5-0.9,1-0.9,1.6c0,0.3,0.1,0.6,0.4,0.9c0.1,0.2,0.2,0.3,0.2,0.5c0,0.1,0,0.2-0.1,0.3
				c-0.1,0.1-0.2,0.1-0.3,0.1c-0.2,0-0.4-0.1-0.5-0.3c-0.2-0.3-0.3-0.7-0.3-1.1c0-0.6,0.2-1.2,0.6-1.7c0.4-0.5,0.9-1,1.7-1.2
				c0.7-0.3,1.5-0.4,2.5-0.4c0.5,0,0.9,0,1.2-0.1c0,0.5,0,0.7,0,0.8c0,0,0,0.2,0,0.3l0.5,5.9c1.3-2.2,2.5-4,3.7-5.4
				c0.9-1,1.6-1.7,2.2-2c-0.4,1-0.7,2.3-1.2,3.9l-1,3.8c-0.1,0.2-0.1,0.5-0.2,0.9l-0.2,0.8c0.4,0.1,0.8,0.1,1.1,0.1
				c0.3,0,0.5,0,0.9-0.1l-0.1,0.5c-0.3,0-0.5,0.1-0.6,0.1c-0.2,0-0.5,0-0.9-0.1c-0.3,0-0.6-0.1-0.9-0.1c-0.3,0-0.6,0.1-0.9,0.2
				c0.3-0.8,0.6-1.8,0.9-3l0.6-2.4c0.3-1,0.5-1.7,0.7-2.1c-0.4,0.5-1.1,1.3-1.9,2.6c-0.7,1-1.5,2.3-2.4,3.9L-244,400.8z"/>
			<path d="M-236.4,395.7l-0.3-0.3c0.5-0.6,1-1,1.4-1.2c0.4-0.2,0.8-0.4,1.1-0.4c0.2,0,0.3,0,0.4,0.1c0.1,0.1,0.1,0.2,0.1,0.3
				c0,0.2-0.2,0.8-0.5,1.9c-0.6,1.8-0.8,3-0.8,3.3c0,0.1,0,0.1,0.1,0.2c0,0,0.1,0.1,0.1,0.1c0.2,0,0.6-0.3,1.3-1l0.3,0.3
				c-0.7,0.7-1.2,1.1-1.6,1.3c-0.3,0.2-0.6,0.3-0.8,0.3c-0.2,0-0.3-0.1-0.4-0.2c-0.1-0.1-0.2-0.3-0.2-0.5c0-0.7,0.4-2.2,1.2-4.8
				c0-0.1,0.1-0.2,0.1-0.3c0-0.1,0-0.2-0.1-0.2c-0.1,0-0.2,0-0.4,0.1C-235.6,395-235.9,395.2-236.4,395.7z M-233.3,390.5
				c0.2,0,0.3,0.1,0.4,0.2c0.1,0.1,0.2,0.2,0.2,0.4c0,0.2-0.1,0.4-0.2,0.6c-0.2,0.2-0.3,0.3-0.5,0.3c-0.2,0-0.3-0.1-0.4-0.2
				c-0.1-0.1-0.2-0.3-0.2-0.4c0-0.2,0.1-0.4,0.2-0.6C-233.7,390.6-233.5,390.5-233.3,390.5z"/>
			<path d="M-228.5,398.8l0.2,0.5c-1.2,1-2.3,1.5-3.1,1.5c-0.5,0-0.8-0.2-1-0.5c-0.2-0.3-0.3-0.7-0.3-1.2c0-0.8,0.2-1.7,0.7-2.5
				c0.4-0.9,1-1.5,1.6-2c0.5-0.4,1-0.5,1.7-0.5c0.4,0,0.7,0.1,0.9,0.2s0.3,0.3,0.3,0.5c0,0.2-0.1,0.3-0.2,0.4
				c-0.1,0.1-0.2,0.2-0.4,0.2c-0.2,0-0.4-0.1-0.7-0.2c-0.3-0.2-0.5-0.3-0.7-0.3c-0.3,0-0.5,0.1-0.8,0.3c-0.3,0.2-0.5,0.7-0.7,1.3
				c-0.2,0.7-0.3,1.3-0.3,2c0,0.5,0.1,0.9,0.3,1.1c0.1,0.2,0.3,0.3,0.6,0.3C-230.1,399.8-229.3,399.5-228.5,398.8z"/>
			<path d="M-221.1,398.8l0.2,0.3c-0.5,0.5-1,1-1.5,1.3c-0.3,0.2-0.6,0.3-0.9,0.3c-0.2,0-0.3-0.1-0.4-0.2s-0.2-0.4-0.2-0.7
				c0-0.2,0-0.5,0.1-0.9c0.1-0.4,0.3-1.3,0.7-2.6c0.2-0.6,0.3-1,0.3-1.1c0-0.2-0.1-0.2-0.3-0.2c-0.2,0-0.5,0.1-0.8,0.3
				c-0.5,0.3-0.9,0.7-1.2,1.2c-0.2,0.3-0.4,0.7-0.5,1.3l-0.6,2.7h-1.2c0.2-0.9,0.4-1.7,0.6-2.2l1.1-5c0.2-0.9,0.5-1.6,0.8-2.1
				c0.3-0.5,0.8-0.9,1.3-1.2c0.6-0.3,1.1-0.4,1.6-0.4c0.2,0,0.4,0.1,0.5,0.2c0.1,0.1,0.2,0.3,0.2,0.4c0,0.1-0.1,0.3-0.2,0.4
				c-0.1,0.1-0.3,0.2-0.5,0.2c-0.1,0-0.3,0-0.5,0c-0.4-0.1-0.8-0.1-0.9-0.1c-0.2,0-0.4,0.1-0.6,0.3c-0.2,0.2-0.3,0.6-0.5,1.4
				l-0.9,3.9c0.6-0.6,1.3-1.2,2-1.6c0.4-0.3,0.8-0.4,1-0.4c0.2,0,0.4,0.1,0.5,0.2c0.1,0.1,0.2,0.3,0.2,0.5c0,0.2,0,0.4-0.1,0.5
				c-0.1,0.3-0.2,0.9-0.5,1.7c-0.3,1.1-0.5,1.8-0.6,2.1c-0.1,0.3-0.1,0.5-0.1,0.7c0,0.1,0,0.1,0,0.2s0.1,0.1,0.1,0.1
				c0.1,0,0.4-0.1,0.7-0.4C-221.6,399.2-221.3,399-221.1,398.8z"/>
			<path d="M-215,393.8l0.5-0.1l-0.6,2c-0.2,0.8-0.5,1.7-0.7,2.7c-0.1,0.6-0.2,0.9-0.2,1.1c0,0.2,0.1,0.2,0.2,0.2
				c0.1,0,0.2-0.1,0.4-0.2c0.3-0.2,0.6-0.4,0.9-0.7l0.2,0.3c-0.6,0.5-1,0.9-1.1,1c-0.3,0.2-0.7,0.4-1,0.5c-0.2,0.1-0.4,0.1-0.6,0.1
				c-0.1,0-0.2,0-0.3-0.1c-0.1-0.1-0.1-0.2-0.1-0.3c0-0.1,0-0.2,0.1-0.3l0.3-1.1c-0.4,0.5-1,1-1.6,1.4c-0.4,0.2-0.7,0.4-1,0.4
				c-0.3,0-0.5-0.1-0.7-0.3c-0.2-0.3-0.3-0.7-0.3-1.1c0-0.6,0.1-1.2,0.4-1.8c0.3-0.7,0.7-1.3,1.2-1.8c0.5-0.6,1-1,1.6-1.2
				c0.4-0.2,1-0.3,1.6-0.3c0.2,0,0.3,0,0.5,0L-215,393.8z M-215.9,394.9c-0.3-0.1-0.5-0.1-0.7-0.1c-0.5,0-0.9,0.1-1.2,0.4
				s-0.7,0.7-1,1.4c-0.3,0.7-0.4,1.3-0.4,2c0,0.4,0.1,0.6,0.2,0.8c0.1,0.2,0.3,0.2,0.5,0.2c0.4,0,0.7-0.2,1.2-0.6
				c0.4-0.4,0.7-0.9,0.9-1.7L-215.9,394.9z"/>
			<path d="M-209.5,398.5l0.3,0.3c-1.3,1.2-2.4,1.8-3.3,1.8c-0.4,0-0.7-0.1-0.8-0.4s-0.3-0.7-0.3-1.2c0-1.1,0.3-2.2,1-3.3
				c0.8-1.3,1.7-1.9,2.7-1.9c0.4,0,0.7,0.1,0.8,0.3c0.2,0.2,0.3,0.4,0.3,0.8c0,0.3-0.1,0.7-0.4,1s-0.7,0.7-1.3,1
				c-0.3,0.2-0.9,0.5-1.9,0.9c0,0.3-0.1,0.5-0.1,0.8c0,0.4,0.1,0.6,0.2,0.8c0.1,0.1,0.3,0.2,0.5,0.2c0.2,0,0.4-0.1,0.7-0.2
				C-210.6,399.3-210.1,399-209.5,398.5z M-212.2,397.4c0.8-0.4,1.5-0.8,1.9-1.2c0.3-0.3,0.4-0.6,0.4-0.9c0-0.2-0.1-0.4-0.2-0.5
				s-0.3-0.2-0.5-0.2c-0.2,0-0.4,0.1-0.6,0.2c-0.2,0.2-0.5,0.5-0.6,0.9C-211.9,396.2-212.1,396.8-212.2,397.4z"/>
			<path d="M-204.9,398.6l0.3,0.3c-0.4,0.5-0.9,0.9-1.4,1.3c-0.6,0.4-1,0.6-1.4,0.6c-0.2,0-0.3-0.1-0.4-0.2
				c-0.1-0.1-0.2-0.3-0.2-0.5c0-0.4,0.2-1.3,0.5-2.6l0.8-3.4c0.3-1.2,0.6-2.1,0.8-2.5c0.3-0.6,0.8-1.1,1.4-1.5
				c0.6-0.4,1.2-0.5,1.9-0.5c0.2,0,0.4,0.1,0.5,0.2c0.1,0.1,0.2,0.2,0.2,0.4c0,0.2-0.1,0.3-0.2,0.4c-0.1,0.1-0.3,0.2-0.5,0.2
				c-0.2,0-0.4,0-0.7-0.1c-0.2,0-0.5-0.1-0.7-0.1c-0.2,0-0.4,0-0.5,0.1c-0.2,0.1-0.3,0.4-0.4,0.8c-0.1,0.4-0.3,1.2-0.6,2.4l-0.8,3.3
				c-0.4,1.6-0.6,2.5-0.6,2.6c0,0.2,0.1,0.2,0.2,0.2c0.1,0,0.3-0.1,0.5-0.2C-205.8,399.3-205.3,399-204.9,398.6z"/>
			<path d="M-195,391l0.2,0.9c0.2,0.8,0.4,1.6,0.6,2.2c0.2,0.6,0.7,2.1,1.5,4.3c0.1-0.3,0.2-0.9,0.5-1.9c0.3-1.3,0.5-2.1,0.6-2.4
				c0.3-1,0.6-1.7,0.8-2.1s0.6-0.8,0.9-1c0.3-0.2,0.7-0.3,1.1-0.3c0.3,0,0.6,0.1,0.8,0.2c0.2,0.1,0.3,0.3,0.3,0.5
				c0,0.1,0,0.2-0.1,0.3c-0.1,0.1-0.2,0.1-0.3,0.1c-0.1,0-0.2,0-0.3-0.1c-0.3-0.1-0.4-0.2-0.5-0.2c-0.1,0-0.2,0-0.3,0
				c-0.3,0-0.5,0.1-0.7,0.3c-0.3,0.3-0.7,1.1-1.1,2.3c-0.4,1.2-0.9,3.2-1.5,5.8l-0.3,1.2c-0.6-1.3-1-2.2-1.2-2.8
				c-0.3-0.7-0.6-1.7-1-2.8l-0.9-2.7c-0.1,0.6-0.3,1.7-0.7,3.2c-0.4,1.5-0.6,2.3-0.7,2.6c-0.2,0.7-0.5,1.2-0.8,1.6s-0.6,0.6-0.9,0.8
				c-0.3,0.2-0.7,0.3-1.1,0.3c-0.5,0-0.9-0.1-1.2-0.3c-0.2-0.2-0.4-0.4-0.4-0.6c0-0.1,0-0.2,0.1-0.3c0.1-0.1,0.2-0.1,0.3-0.1
				c0.2,0,0.3,0.1,0.5,0.3c0.3,0.3,0.6,0.5,0.9,0.5c0.3,0,0.6-0.1,0.9-0.4c0.4-0.4,0.8-1.3,1.2-2.6c0.5-1.6,0.9-3.6,1.4-6
				c-0.2,0-0.5,0.1-1,0.2s-0.9,0.3-1.3,0.4s-0.6,0.4-0.8,0.7c-0.2,0.3-0.3,0.6-0.3,1c0,0.2,0,0.3,0.1,0.5c0,0.1,0.1,0.3,0.2,0.4
				c0.1,0.2,0.2,0.3,0.2,0.4c0,0.1,0,0.2-0.1,0.3c-0.1,0.1-0.2,0.1-0.3,0.1c-0.2,0-0.4-0.1-0.5-0.3c-0.1-0.2-0.2-0.5-0.2-0.9
				c0-0.7,0.2-1.3,0.5-1.8c0.4-0.5,0.8-0.9,1.4-1.1c0.4-0.2,1.1-0.3,2.2-0.5C-195.7,391.2-195.3,391.1-195,391z"/>
			<path d="M-184.3,394.1h1.1l-0.7,2.7c-0.4,1.6-0.6,2.5-0.6,2.7c0,0.1,0,0.2,0.1,0.2s0.1,0.1,0.2,0.1c0.1,0,0.2,0,0.3-0.1
				c0.2-0.1,0.5-0.4,1-0.9l0.3,0.3c-1,1.1-1.8,1.6-2.3,1.6c-0.2,0-0.3-0.1-0.4-0.2c-0.1-0.1-0.2-0.3-0.2-0.5c0-0.3,0.1-0.6,0.2-1.1
				c-0.5,0.5-1,1-1.7,1.4c-0.5,0.3-0.8,0.4-1.2,0.4c-0.2,0-0.3-0.1-0.4-0.2s-0.2-0.3-0.2-0.6c0-0.2,0-0.4,0.1-0.7
				c0.1-0.3,0.2-1,0.5-2c0.3-1.3,0.5-2,0.5-2.3c0-0.1-0.1-0.2-0.2-0.2c-0.1,0-0.2,0-0.4,0.1c-0.2,0.1-0.4,0.3-0.8,0.7l-0.3-0.3
				c0.7-0.6,1.2-1,1.6-1.2c0.4-0.2,0.7-0.3,0.9-0.3c0.1,0,0.2,0,0.3,0.1c0.1,0.1,0.1,0.2,0.1,0.4c0,0.4-0.2,1.2-0.6,2.7
				c-0.3,1.3-0.5,2-0.5,2.2c0,0.1,0,0.2,0.1,0.3c0.1,0.1,0.1,0.1,0.2,0.1c0.3,0,0.7-0.2,1.2-0.7c0.5-0.5,0.9-1,1.1-1.6L-184.3,394.1
				z"/>
			<path d="M-177,393.8l0.6-0.1c-0.4,1.2-0.7,2.4-1,3.7c-0.2,0.9-0.4,1.6-0.5,2.2c0,0.3-0.1,0.7-0.1,1.1c0,0.8-0.1,1.4-0.2,1.8
				c-0.2,0.6-0.6,1.2-1.2,1.5c-0.6,0.4-1.3,0.6-2.1,0.6c-0.7,0-1.3-0.2-1.7-0.5c-0.4-0.3-0.6-0.7-0.6-1.1c0-0.4,0.2-0.8,0.5-1.2
				c0.2-0.3,0.7-0.6,1.5-1c0.4-0.2,0.7-0.4,1.1-0.6c-0.4,0.2-0.7,0.3-0.9,0.3c-0.2,0-0.4-0.1-0.5-0.3c-0.1-0.2-0.2-0.4-0.2-0.7
				c0-1,0.3-1.9,0.9-2.9c0.6-0.9,1.3-1.7,2.1-2.1c0.5-0.3,1.1-0.4,1.9-0.4c0.1,0,0.3,0,0.5,0L-177,393.8z M-178.9,399.2
				c-0.4,0.3-1,0.8-2.1,1.5c-0.9,0.6-1.4,1-1.6,1.3c-0.2,0.3-0.3,0.6-0.3,0.9c0,0.3,0.1,0.6,0.4,0.8c0.3,0.2,0.6,0.4,1,0.4
				c0.4,0,0.7-0.1,1-0.3s0.6-0.4,0.9-0.8c0.2-0.3,0.4-0.7,0.5-1.1c0.1-0.4,0.1-1,0.1-1.7C-179,400.1-178.9,399.8-178.9,399.2z
				 M-177.8,395c-0.2,0-0.5-0.1-0.7-0.1c-0.5,0-0.9,0.1-1.3,0.4c-0.4,0.3-0.7,0.7-0.9,1.3c-0.3,0.9-0.5,1.6-0.5,2.2
				c0,0.2,0.1,0.5,0.2,0.6c0.1,0.2,0.3,0.2,0.5,0.2c0.2,0,0.5-0.1,0.8-0.3c0.3-0.2,0.6-0.5,0.8-0.8c0.2-0.3,0.4-0.8,0.6-1.6
				L-177.8,395z"/>
			<path d="M-171.7,398.5l0.3,0.3c-1.3,1.2-2.4,1.8-3.3,1.8c-0.4,0-0.7-0.1-0.8-0.4s-0.3-0.7-0.3-1.2c0-1.1,0.3-2.2,1-3.3
				c0.8-1.3,1.7-1.9,2.7-1.9c0.4,0,0.7,0.1,0.8,0.3c0.2,0.2,0.3,0.4,0.3,0.8c0,0.3-0.1,0.7-0.4,1s-0.7,0.7-1.3,1
				c-0.3,0.2-0.9,0.5-1.9,0.9c0,0.3-0.1,0.5-0.1,0.8c0,0.4,0.1,0.6,0.2,0.8c0.1,0.1,0.3,0.2,0.5,0.2c0.2,0,0.4-0.1,0.7-0.2
				C-172.9,399.3-172.4,399-171.7,398.5z M-174.5,397.4c0.8-0.4,1.5-0.8,1.9-1.2c0.3-0.3,0.4-0.6,0.4-0.9c0-0.2-0.1-0.4-0.2-0.5
				s-0.3-0.2-0.5-0.2c-0.2,0-0.4,0.1-0.6,0.2c-0.2,0.2-0.4,0.5-0.6,0.9C-174.2,396.2-174.4,396.8-174.5,397.4z"/>
			<path d="M-170.2,395.7l-0.3-0.3c0.7-0.6,1.2-1.1,1.6-1.3c0.4-0.2,0.7-0.3,1-0.3c0.1,0,0.2,0,0.3,0.1c0.1,0,0.1,0.1,0.1,0.2
				c0,0,0,0.1,0,0.2l-0.4,1.6c0.5-0.6,1.2-1.1,2-1.7c0.4-0.3,0.8-0.4,1.1-0.4c0.2,0,0.4,0.1,0.5,0.2c0.1,0.1,0.2,0.3,0.2,0.6
				c0,0.2,0,0.3-0.1,0.5c-0.1,0.3-0.3,1.1-0.7,2.2c-0.3,1.1-0.5,1.8-0.5,2.1c0,0.1,0,0.2,0,0.2c0,0.1,0.1,0.1,0.1,0.1
				c0.2,0,0.4-0.1,0.7-0.4c0.2-0.2,0.5-0.4,0.7-0.6l0.2,0.3c-0.5,0.5-1,1-1.5,1.3c-0.3,0.2-0.6,0.3-0.8,0.3c-0.2,0-0.4-0.1-0.5-0.2
				c-0.1-0.1-0.2-0.4-0.2-0.7c0-0.5,0.3-1.6,0.9-3.5c0.2-0.7,0.3-1,0.3-1.1c0-0.2-0.1-0.2-0.3-0.2c-0.2,0-0.5,0.1-0.8,0.3
				c-0.5,0.3-0.9,0.7-1.2,1.1c-0.2,0.3-0.4,0.7-0.5,1.3l-0.6,2.7h-1.2c0.2-0.8,0.4-1.5,0.6-2.2l0.7-3c0-0.1,0-0.2,0-0.3
				c0-0.1-0.1-0.2-0.2-0.2c-0.1,0-0.2,0.1-0.4,0.2C-169.6,395.1-169.9,395.4-170.2,395.7z"/>
			<path d="M-160.8,392.7l1.2-0.5l-0.6,2.2h1.6l-0.1,0.6h-1.6l-0.7,2.6c-0.2,0.8-0.3,1.3-0.3,1.6c0,0.1,0,0.2,0.1,0.3
				c0.1,0.1,0.1,0.1,0.2,0.1c0.2,0,0.4-0.1,0.7-0.3c0.4-0.3,0.9-0.5,1.2-0.9l0.3,0.4c-1.1,0.9-1.9,1.4-2.3,1.6
				c-0.4,0.2-0.7,0.3-0.9,0.3c-0.2,0-0.3-0.1-0.5-0.2s-0.2-0.4-0.2-0.7c0-0.4,0.1-0.9,0.3-1.7l0.8-3.1h-1.3l0.1-0.6h1.3
				L-160.8,392.7z"/>
		</g>
	</g>
</mask>
<circle opacity="0.5" mask="url(#SVGID_1_)" fill="#FFFFFF" enable-background="new    " cx="-204.8" cy="397" r="49.7"/>
<g id="Florid_Vector_Pack_07">
</g>
</svg>
