<?xml version="1.0" encoding="utf-8"?>
<!-- Generator: Adobe Illustrator 17.0.0, SVG Export Plug-In . SVG Version: 6.00 Build 0)  -->
<!DOCTYPE svg PUBLIC "-//W3C//DTD SVG 1.1//EN" "http://www.w3.org/Graphics/SVG/1.1/DTD/svg11.dtd">
<svg version="1.1" id="Layer_1" xmlns="http://www.w3.org/2000/svg" xmlns:xlink="http://www.w3.org/1999/xlink" x="0px" y="0px"
	 width="100px" height="100px" viewBox="0 0 100 100" enable-background="new 0 0 100 100" xml:space="preserve">
<circle opacity="0.2" fill="#FFFFFF" cx="50.178" cy="50" r="49.677"/>
<g id="Florid_Vector_Pack_07">
</g>
<g>
	<path fill="#FFFFFF" d="M10.961,54.79l-0.617-8.415c-0.136,1.417-0.386,2.738-0.75,3.965c-0.365,1.227-0.779,2.175-1.242,2.844
		c-0.464,0.669-0.938,1.14-1.422,1.41S5.966,55,5.492,55c-0.287,0-0.507-0.059-0.66-0.176c-0.154-0.117-0.23-0.259-0.23-0.426
		c0-0.141,0.056-0.263,0.168-0.367c0.112-0.104,0.254-0.156,0.426-0.156c0.125,0,0.305,0.027,0.539,0.082
		c0.213,0.055,0.391,0.082,0.531,0.082c0.245,0,0.5-0.091,0.766-0.273c0.401-0.271,0.798-0.755,1.191-1.456
		c0.393-0.7,0.745-1.675,1.055-2.927c0.31-1.251,0.504-2.473,0.582-3.665c-1.183,0-2.144,0.294-2.883,0.883
		c-0.589,0.469-0.883,0.992-0.883,1.57c0,0.255,0.139,0.563,0.417,0.922c0.149,0.193,0.224,0.349,0.224,0.469
		c0,0.136-0.043,0.248-0.128,0.336c-0.086,0.089-0.188,0.133-0.307,0.133c-0.202,0-0.381-0.114-0.536-0.344
		c-0.212-0.307-0.318-0.672-0.318-1.094c0-0.594,0.199-1.163,0.598-1.707c0.398-0.544,0.95-0.958,1.656-1.242
		c0.706-0.284,1.532-0.428,2.48-0.434c0.51,0,0.919-0.047,1.227-0.141c-0.017,0.469-0.024,0.722-0.021,0.758
		c-0.002,0.047,0.004,0.154,0.021,0.32l0.454,5.95c1.26-2.198,2.491-4.006,3.693-5.426c0.854-1.005,1.597-1.685,2.231-2.039
		c-0.361,0.99-0.749,2.294-1.163,3.914l-0.958,3.75c-0.053,0.208-0.124,0.513-0.212,0.914l-0.188,0.836
		c0.396,0.094,0.758,0.141,1.086,0.141c0.266,0,0.55-0.031,0.852-0.094l-0.102,0.453c-0.266,0.047-0.472,0.07-0.618,0.07
		c-0.213,0-0.521-0.023-0.922-0.07c-0.329-0.042-0.621-0.063-0.876-0.063c-0.271,0-0.578,0.052-0.922,0.156
		c0.287-0.75,0.587-1.758,0.901-3.023l0.603-2.391c0.255-1.031,0.478-1.739,0.666-2.125c-0.418,0.475-1.063,1.345-1.936,2.612
		c-0.7,1.022-1.484,2.315-2.352,3.879L10.961,54.79z"/>
	<path fill="#FFFFFF" d="M18.641,49.695l-0.344-0.266c0.52-0.573,0.995-0.98,1.424-1.223c0.43-0.242,0.795-0.363,1.097-0.363
		c0.167,0,0.294,0.037,0.382,0.109c0.088,0.073,0.132,0.172,0.132,0.297c0,0.151-0.168,0.792-0.506,1.922
		C20.275,52.021,20,53.136,20,53.516c0,0.073,0.018,0.134,0.055,0.184c0.036,0.05,0.075,0.074,0.117,0.074
		c0.167,0,0.594-0.323,1.281-0.969l0.305,0.297c-0.714,0.672-1.234,1.102-1.563,1.289s-0.597,0.281-0.805,0.281
		c-0.183,0-0.327-0.058-0.434-0.172c-0.107-0.114-0.16-0.273-0.16-0.477c0-0.651,0.391-2.242,1.172-4.773
		c0.036-0.12,0.055-0.227,0.055-0.32c0-0.104-0.047-0.156-0.141-0.156c-0.104,0-0.223,0.042-0.355,0.125
		C19.395,48.982,19.099,49.248,18.641,49.695z M21.711,44.523c0.161,0,0.294,0.054,0.398,0.16c0.104,0.107,0.156,0.244,0.156,0.41
		c0,0.229-0.08,0.431-0.238,0.605c-0.159,0.175-0.337,0.262-0.535,0.262c-0.156,0-0.287-0.055-0.391-0.164
		c-0.104-0.109-0.156-0.252-0.156-0.43c0-0.234,0.075-0.434,0.227-0.598C21.323,44.605,21.502,44.523,21.711,44.523z"/>
	<path fill="#FFFFFF" d="M26.516,52.758l0.164,0.453c-1.24,0.974-2.287,1.461-3.141,1.461c-0.453,0-0.783-0.162-0.988-0.484
		c-0.206-0.323-0.309-0.731-0.309-1.227c0-0.823,0.219-1.669,0.656-2.539c0.438-0.87,0.969-1.536,1.594-2
		c0.489-0.359,1.042-0.539,1.656-0.539c0.385,0,0.677,0.073,0.875,0.219c0.198,0.146,0.297,0.323,0.297,0.531
		c0,0.162-0.052,0.293-0.156,0.395c-0.104,0.102-0.25,0.152-0.438,0.152c-0.183,0-0.417-0.083-0.703-0.25
		c-0.297-0.177-0.544-0.266-0.742-0.266c-0.255,0-0.509,0.116-0.762,0.347c-0.253,0.231-0.494,0.68-0.723,1.346
		c-0.229,0.666-0.344,1.334-0.344,2.004c0,0.494,0.096,0.876,0.289,1.147c0.141,0.208,0.338,0.312,0.594,0.312
		C24.945,53.82,25.672,53.466,26.516,52.758z"/>
	<path fill="#FFFFFF" d="M33.938,52.797l0.203,0.289c-0.479,0.531-0.972,0.953-1.477,1.266c-0.344,0.213-0.628,0.32-0.852,0.32
		c-0.183,0-0.329-0.073-0.441-0.219s-0.168-0.372-0.168-0.68c0-0.208,0.043-0.512,0.129-0.91s0.329-1.254,0.73-2.566
		c0.177-0.646,0.266-1.023,0.266-1.133c0-0.167-0.089-0.25-0.267-0.25c-0.22,0-0.493,0.109-0.822,0.327
		c-0.46,0.301-0.867,0.686-1.223,1.153c-0.225,0.299-0.405,0.742-0.541,1.33l-0.617,2.729h-1.164c0.25-0.91,0.442-1.654,0.578-2.232
		l1.148-5.01c0.208-0.926,0.483-1.638,0.824-2.138c0.341-0.5,0.786-0.898,1.336-1.196c0.55-0.298,1.093-0.447,1.629-0.447
		c0.224,0,0.401,0.056,0.531,0.167s0.195,0.251,0.195,0.42c0,0.143-0.064,0.268-0.191,0.376c-0.128,0.108-0.302,0.162-0.521,0.162
		c-0.125,0-0.287-0.014-0.485-0.042c-0.448-0.066-0.759-0.099-0.931-0.099c-0.24,0-0.436,0.097-0.587,0.291
		c-0.15,0.193-0.308,0.649-0.469,1.366l-0.872,3.856c0.621-0.65,1.295-1.199,2.026-1.646c0.428-0.265,0.771-0.398,1.032-0.398
		c0.203,0,0.362,0.06,0.478,0.18c0.114,0.119,0.172,0.286,0.172,0.5c0,0.177-0.021,0.354-0.063,0.531
		c-0.068,0.308-0.228,0.865-0.479,1.672c-0.34,1.115-0.539,1.808-0.6,2.078c-0.06,0.271-0.09,0.513-0.09,0.727
		c0,0.083,0.015,0.146,0.043,0.188c0.028,0.042,0.071,0.063,0.129,0.063c0.125,0,0.359-0.148,0.703-0.445
		C33.427,53.214,33.661,53.021,33.938,52.797z"/>
	<path fill="#FFFFFF" d="M40.031,47.75l0.516-0.109l-0.586,1.977c-0.234,0.787-0.456,1.693-0.664,2.719
		c-0.114,0.558-0.172,0.917-0.172,1.078c0,0.162,0.065,0.242,0.195,0.242c0.083,0,0.216-0.055,0.398-0.164
		c0.323-0.192,0.633-0.432,0.93-0.719l0.25,0.305c-0.594,0.542-0.974,0.87-1.141,0.984c-0.333,0.229-0.651,0.398-0.953,0.508
		c-0.198,0.073-0.391,0.109-0.578,0.109c-0.136,0-0.237-0.031-0.305-0.094s-0.102-0.153-0.102-0.273c0-0.078,0.021-0.185,0.063-0.32
		l0.313-1.063c-0.448,0.537-0.981,0.998-1.602,1.383c-0.38,0.239-0.729,0.359-1.047,0.359c-0.302,0-0.534-0.107-0.695-0.32
		c-0.219-0.286-0.328-0.661-0.328-1.125c0-0.552,0.147-1.167,0.441-1.844c0.294-0.677,0.688-1.292,1.184-1.844
		c0.495-0.552,1.016-0.958,1.563-1.219c0.422-0.198,0.964-0.297,1.625-0.297c0.167,0,0.336,0.011,0.508,0.031L40.031,47.75z
		 M39.063,48.945c-0.281-0.057-0.519-0.086-0.711-0.086c-0.469,0-0.878,0.129-1.227,0.387s-0.673,0.722-0.973,1.391
		c-0.3,0.669-0.449,1.337-0.449,2.004c0,0.354,0.06,0.609,0.18,0.766s0.276,0.234,0.469,0.234c0.359,0,0.745-0.194,1.156-0.582
		c0.411-0.388,0.714-0.946,0.906-1.676L39.063,48.945z"/>
	<path fill="#FFFFFF" d="M45.516,52.492l0.258,0.344c-1.276,1.214-2.37,1.82-3.281,1.82c-0.37,0-0.652-0.125-0.848-0.375
		s-0.293-0.651-0.293-1.203c0-1.114,0.339-2.224,1.016-3.328c0.761-1.255,1.669-1.883,2.727-1.883c0.37,0,0.652,0.093,0.848,0.277
		c0.195,0.185,0.293,0.439,0.293,0.762c0,0.339-0.117,0.672-0.352,1s-0.653,0.669-1.258,1.023c-0.302,0.172-0.948,0.482-1.938,0.93
		c-0.047,0.281-0.07,0.55-0.07,0.805c0,0.37,0.059,0.628,0.176,0.773c0.117,0.146,0.288,0.219,0.512,0.219
		c0.214,0,0.448-0.06,0.703-0.18C44.352,53.315,44.854,52.987,45.516,52.492z M42.781,51.359c0.839-0.375,1.469-0.778,1.891-1.211
		c0.286-0.302,0.43-0.602,0.43-0.898c0-0.224-0.059-0.402-0.176-0.535s-0.27-0.199-0.457-0.199c-0.192,0-0.38,0.073-0.563,0.219
		c-0.245,0.193-0.45,0.484-0.617,0.875C43.05,50.183,42.88,50.766,42.781,51.359z"/>
	<path fill="#FFFFFF" d="M50.109,52.57l0.266,0.281c-0.406,0.458-0.887,0.876-1.441,1.254s-1.012,0.566-1.371,0.566
		c-0.161,0-0.294-0.062-0.398-0.184s-0.156-0.29-0.156-0.504c0-0.417,0.161-1.281,0.483-2.594l0.843-3.43
		c0.307-1.239,0.564-2.07,0.772-2.492c0.323-0.638,0.779-1.134,1.369-1.486c0.591-0.353,1.214-0.529,1.869-0.529
		c0.224,0,0.399,0.054,0.526,0.161c0.128,0.107,0.191,0.237,0.191,0.39c0,0.168-0.063,0.306-0.187,0.413
		c-0.125,0.107-0.307,0.161-0.545,0.161c-0.156,0-0.377-0.026-0.662-0.078c-0.249-0.042-0.479-0.063-0.692-0.063
		s-0.374,0.044-0.483,0.132c-0.15,0.125-0.286,0.386-0.408,0.785c-0.122,0.399-0.32,1.187-0.596,2.364l-0.779,3.273
		c-0.386,1.641-0.578,2.498-0.578,2.57c0,0.167,0.06,0.25,0.18,0.25c0.114,0,0.281-0.067,0.5-0.203
		C49.244,53.339,49.677,52.992,50.109,52.57z"/>
	<path fill="#FFFFFF" d="M60,45.047l0.219,0.914c0.203,0.833,0.403,1.563,0.602,2.188s0.706,2.07,1.523,4.336
		c0.078-0.286,0.234-0.922,0.469-1.906c0.302-1.281,0.503-2.086,0.602-2.414c0.292-0.963,0.573-1.672,0.844-2.125
		s0.573-0.778,0.906-0.977c0.333-0.198,0.711-0.297,1.133-0.297c0.339,0,0.598,0.065,0.777,0.195c0.18,0.13,0.27,0.287,0.27,0.469
		c0,0.13-0.048,0.245-0.145,0.344c-0.097,0.099-0.21,0.148-0.34,0.148c-0.094,0-0.203-0.026-0.328-0.078
		c-0.261-0.104-0.417-0.164-0.469-0.18c-0.094-0.021-0.195-0.031-0.305-0.031c-0.256,0-0.475,0.086-0.656,0.258
		c-0.323,0.302-0.679,1.06-1.067,2.273c-0.388,1.214-0.882,3.154-1.48,5.82l-0.266,1.164c-0.594-1.307-0.994-2.234-1.203-2.781
		c-0.281-0.734-0.601-1.661-0.96-2.781l-0.859-2.703c-0.104,0.625-0.348,1.679-0.73,3.16c-0.383,1.482-0.61,2.335-0.684,2.559
		c-0.239,0.703-0.496,1.242-0.77,1.617s-0.573,0.648-0.898,0.82s-0.684,0.258-1.074,0.258c-0.489,0-0.891-0.109-1.203-0.328
		c-0.239-0.162-0.359-0.367-0.359-0.617c0-0.109,0.044-0.207,0.133-0.293S53.875,53.93,54,53.93c0.161,0,0.336,0.086,0.523,0.258
		c0.333,0.307,0.638,0.461,0.914,0.461c0.297,0,0.589-0.133,0.875-0.398c0.427-0.406,0.839-1.258,1.234-2.555
		c0.479-1.567,0.94-3.557,1.383-5.969c-0.183,0-0.531,0.052-1.047,0.156c-0.516,0.104-0.946,0.251-1.293,0.441
		c-0.347,0.19-0.612,0.438-0.797,0.742s-0.277,0.624-0.277,0.957c0,0.167,0.023,0.336,0.07,0.508
		c0.031,0.115,0.099,0.255,0.203,0.422c0.12,0.193,0.18,0.339,0.18,0.438c0,0.125-0.046,0.232-0.137,0.32
		c-0.091,0.089-0.204,0.133-0.34,0.133c-0.198,0-0.367-0.103-0.508-0.309c-0.141-0.206-0.211-0.52-0.211-0.941
		c0-0.698,0.176-1.292,0.527-1.781c0.352-0.489,0.821-0.859,1.41-1.109c0.375-0.156,1.099-0.307,2.172-0.453
		C59.278,45.198,59.651,45.13,60,45.047z"/>
	<path fill="#FFFFFF" d="M70.692,48.086h1.112l-0.734,2.73c-0.433,1.586-0.648,2.488-0.648,2.707c0,0.099,0.023,0.175,0.07,0.227
		c0.047,0.052,0.099,0.078,0.156,0.078c0.089,0,0.192-0.039,0.313-0.117c0.172-0.12,0.497-0.422,0.977-0.906l0.258,0.289
		c-1.047,1.089-1.817,1.633-2.313,1.633c-0.167,0-0.309-0.064-0.426-0.191s-0.176-0.309-0.176-0.543
		c0-0.271,0.057-0.633,0.169-1.086c-0.463,0.531-1.035,0.998-1.717,1.398c-0.453,0.266-0.847,0.398-1.179,0.398
		c-0.183,0-0.326-0.06-0.43-0.18c-0.104-0.12-0.156-0.311-0.156-0.571c0-0.203,0.023-0.422,0.07-0.657
		c0.067-0.329,0.239-0.988,0.516-1.979c0.349-1.257,0.523-2.011,0.523-2.261c0-0.146-0.052-0.219-0.156-0.219
		c-0.094,0-0.222,0.048-0.383,0.145c-0.161,0.097-0.438,0.33-0.828,0.699l-0.344-0.273c0.698-0.625,1.23-1.035,1.598-1.23
		s0.663-0.293,0.887-0.293c0.125,0,0.227,0.046,0.305,0.137c0.078,0.092,0.117,0.233,0.117,0.427c0,0.359-0.188,1.244-0.563,2.652
		c-0.333,1.267-0.5,1.99-0.5,2.167c0,0.109,0.035,0.204,0.105,0.282s0.146,0.117,0.23,0.117c0.291,0,0.705-0.241,1.24-0.723
		c0.536-0.481,0.888-1.03,1.055-1.645L70.692,48.086z"/>
	<path fill="#FFFFFF" d="M78.033,47.828l0.628-0.141c-0.379,1.219-0.727,2.44-1.044,3.665c-0.229,0.875-0.387,1.604-0.475,2.188
		c-0.047,0.292-0.072,0.662-0.078,1.109c-0.01,0.75-0.094,1.354-0.25,1.813c-0.219,0.641-0.626,1.156-1.223,1.547
		s-1.305,0.586-2.122,0.586c-0.703,0-1.257-0.166-1.661-0.496c-0.403-0.331-0.605-0.71-0.605-1.137c0-0.422,0.162-0.815,0.485-1.18
		c0.24-0.276,0.741-0.609,1.504-1c0.387-0.203,0.749-0.411,1.089-0.625c-0.388,0.198-0.688,0.297-0.902,0.297
		c-0.194,0-0.365-0.09-0.515-0.27s-0.224-0.418-0.224-0.715c0-0.958,0.285-1.91,0.855-2.855s1.257-1.655,2.06-2.129
		c0.495-0.292,1.115-0.438,1.86-0.438c0.146,0,0.325,0.005,0.539,0.016L78.033,47.828z M76.102,53.242
		c-0.355,0.318-1.039,0.826-2.051,1.523c-0.893,0.604-1.44,1.039-1.644,1.305c-0.204,0.271-0.306,0.557-0.306,0.859
		c0,0.297,0.132,0.563,0.396,0.801c0.264,0.237,0.583,0.355,0.959,0.355c0.354,0,0.699-0.087,1.033-0.262
		c0.334-0.175,0.625-0.427,0.873-0.758c0.247-0.331,0.418-0.705,0.513-1.121c0.094-0.417,0.144-0.969,0.148-1.656
		C76.028,54.138,76.055,53.789,76.102,53.242z M77.16,48.984c-0.249-0.047-0.471-0.07-0.663-0.07c-0.494,0-0.918,0.13-1.272,0.391
		c-0.354,0.261-0.655,0.698-0.904,1.313c-0.35,0.87-0.523,1.602-0.523,2.195c0,0.245,0.068,0.451,0.207,0.617
		c0.138,0.167,0.293,0.25,0.464,0.25c0.208,0,0.466-0.1,0.772-0.301c0.308-0.2,0.559-0.452,0.754-0.754
		c0.194-0.302,0.394-0.823,0.597-1.563L77.16,48.984z"/>
	<path fill="#FFFFFF" d="M83.266,52.492l0.258,0.344c-1.276,1.214-2.37,1.82-3.281,1.82c-0.37,0-0.652-0.125-0.848-0.375
		s-0.293-0.651-0.293-1.203c0-1.114,0.339-2.224,1.016-3.328c0.761-1.255,1.669-1.883,2.727-1.883c0.37,0,0.652,0.093,0.848,0.277
		c0.195,0.185,0.293,0.439,0.293,0.762c0,0.339-0.117,0.672-0.352,1s-0.653,0.669-1.258,1.023c-0.302,0.172-0.948,0.482-1.938,0.93
		c-0.047,0.281-0.07,0.55-0.07,0.805c0,0.37,0.059,0.628,0.176,0.773c0.117,0.146,0.288,0.219,0.512,0.219
		c0.214,0,0.448-0.06,0.703-0.18C82.102,53.315,82.604,52.987,83.266,52.492z M80.531,51.359c0.839-0.375,1.469-0.778,1.891-1.211
		c0.286-0.302,0.43-0.602,0.43-0.898c0-0.224-0.059-0.402-0.176-0.535s-0.27-0.199-0.457-0.199c-0.192,0-0.38,0.073-0.563,0.219
		c-0.245,0.193-0.45,0.484-0.617,0.875C80.8,50.183,80.63,50.766,80.531,51.359z"/>
	<path fill="#FFFFFF" d="M84.844,49.719l-0.266-0.273c0.667-0.639,1.199-1.063,1.595-1.272c0.396-0.209,0.735-0.314,1.017-0.314
		c0.109,0,0.195,0.023,0.258,0.07s0.094,0.102,0.094,0.164c0,0.047-0.013,0.13-0.039,0.25l-0.352,1.572
		c0.53-0.589,1.195-1.139,1.996-1.65c0.427-0.266,0.777-0.399,1.054-0.399c0.202,0,0.361,0.065,0.476,0.195
		c0.114,0.13,0.172,0.318,0.172,0.563c0,0.162-0.023,0.344-0.07,0.547c-0.083,0.339-0.301,1.076-0.654,2.211
		c-0.332,1.063-0.498,1.769-0.498,2.117c0,0.107,0.016,0.187,0.047,0.24c0.031,0.054,0.075,0.08,0.133,0.08
		c0.151,0,0.388-0.146,0.711-0.438c0.229-0.208,0.458-0.401,0.688-0.578l0.195,0.281c-0.479,0.529-0.977,0.954-1.492,1.275
		c-0.328,0.208-0.599,0.311-0.813,0.311c-0.198,0-0.352-0.072-0.461-0.215s-0.164-0.376-0.164-0.699
		c0-0.463,0.289-1.617,0.867-3.461c0.177-0.656,0.266-1.039,0.266-1.148c0-0.161-0.097-0.242-0.289-0.242
		c-0.208,0-0.477,0.109-0.805,0.329c-0.489,0.323-0.898,0.704-1.227,1.142c-0.208,0.282-0.383,0.73-0.523,1.346l-0.633,2.73h-1.164
		c0.219-0.782,0.409-1.531,0.57-2.245l0.695-2.973c0.026-0.12,0.039-0.206,0.039-0.258c0-0.141-0.052-0.211-0.156-0.211
		c-0.083,0-0.203,0.055-0.359,0.166C85.427,49.146,85.125,49.409,84.844,49.719z"/>
	<path fill="#FFFFFF" d="M94.156,46.68l1.24-0.476l-0.562,2.187h1.618l-0.125,0.555h-1.619l-0.682,2.618
		c-0.216,0.786-0.324,1.333-0.324,1.64c0,0.141,0.03,0.242,0.09,0.305s0.142,0.094,0.246,0.094c0.161,0,0.409-0.096,0.742-0.289
		c0.438-0.255,0.854-0.544,1.25-0.867l0.297,0.359c-1.141,0.859-1.903,1.386-2.289,1.578s-0.695,0.289-0.93,0.289
		c-0.192,0-0.345-0.07-0.457-0.211s-0.168-0.37-0.168-0.688c0-0.375,0.099-0.948,0.297-1.719l0.795-3.109h-1.266l0.141-0.555h1.268
		L94.156,46.68z"/>
</g>
</svg>
