<?xml version="1.0" encoding="utf-8"?>
<!-- Generator: Adobe Illustrator 16.0.4, SVG Export Plug-In . SVG Version: 6.00 Build 0)  -->
<!DOCTYPE svg PUBLIC "-//W3C//DTD SVG 1.1//EN" "https://www.w3.org/Graphics/SVG/1.1/DTD/svg11.dtd">
<svg version="1.1" id="Layer_1" xmlns="https://www.w3.org/2000/svg" xmlns:xlink="https://www.w3.org/1999/xlink" x="0px" y="0px"
	 width="305px" height="100px" viewBox="-32.5 0 305 100" enable-background="new -32.5 0 305 100" xml:space="preserve">
<g display="none">
	<g display="inline">
		<path fill="#FFFFFF" d="M-11.628,39.273c-1.956-2.334-4.799-3.664-8.455-3.664c-7.444,0-12.933,6.054-12.933,14.381
			c0,8.324,5.488,14.383,12.617,14.383c3.972,0,7.188-1.768,9.21-4.794l8.2,6.123c-3.725,5.306-10.03,7.763-16.146,7.763
			c-13.939,0-24.094-9.148-24.094-23.467c0-14.312,10.154-23.463,24.094-23.463c4.979,0,11.288,1.704,15.071,6.561L-11.628,39.273z"
			/>
		<path fill="#FFFFFF" d="M13.917,40.91c9.458,0,17.031,6.309,17.031,16.085c0,9.772-7.573,16.079-17.031,16.079
			c-9.459,0-17.026-6.307-17.026-16.079C-3.109,47.218,4.458,40.91,13.917,40.91z M13.917,64.755c4.729,0,7.569-3.155,7.569-7.76
			c0-4.608-2.84-7.765-7.569-7.765c-4.728,0-7.567,3.156-7.567,7.765C6.35,61.6,9.189,64.755,13.917,64.755z"/>
		<path fill="#FFFFFF" d="M54.223,49.236H45.9v10.222c0,3.278,0.378,5.665,4.471,5.665c1.013,0,3.032-0.12,3.853-0.875v7.879
			c-2.085,0.759-4.415,0.944-6.625,0.944c-6.303,0-11.159-2.584-11.159-9.273V49.23h-6.057v-7.569h6.057v-9.083h9.458v9.083h8.321
			v7.572h0.005L54.223,49.236L54.223,49.236z"/>
		<path fill="#FFFFFF" d="M76.736,49.236h-8.325v10.222c0,3.278,0.383,5.665,4.487,5.665c1.002,0,3.027-0.12,3.838-0.875v7.879
			c-2.072,0.759-4.411,0.944-6.617,0.944c-6.303,0-11.162-2.584-11.162-9.273V49.23h-6.054v-7.569h6.054v-9.083h9.46v9.083h8.325
			v7.572h-0.006V49.236L76.736,49.236z"/>
		<path fill="#FFFFFF" d="M94.282,40.91c9.459,0,17.026,6.309,17.026,16.085c0,9.772-7.567,16.079-17.026,16.079
			c-9.467,0-17.028-6.307-17.028-16.079C77.254,47.218,84.815,40.91,94.282,40.91z M94.282,64.755c4.727,0,7.565-3.155,7.565-7.76
			c0-4.608-2.845-7.765-7.565-7.765c-4.734,0-7.572,3.156-7.572,7.765C86.71,61.6,89.548,64.755,94.282,64.755z"/>
		<path fill="#FFFFFF" d="M113.709,41.667h9.082v4.166h0.124c1.261-2.401,4.36-4.922,8.959-4.922
			c9.586,0,11.354,6.309,11.354,14.512v16.899h-9.459V57.311c0-3.533-0.067-8.075-4.922-8.075c-4.922,0-5.679,3.848-5.679,7.823
			v15.264h-9.46V41.667L113.709,41.667z"/>
	</g>
</g>
<g>
	<path fill="#FFFFFF" d="M-2.21,62.5l4.801-22.706L-6.53,62.5h-6.576V42.002L-19.443,62.5h-3.841l10.753-32.979
		c-4.8,1.536-7.729,5.329-7.729,10.849c0,2.448,0.624,2.832,0.672,3.264c-3.312,0-5.136-1.2-5.136-4.656
		c0-5.856,8.112-12.289,15.602-12.289c1.104,0,2.256,0.144,3.312,0.48v27.65l10.514-27.65h7.536L4.703,62.5H-2.21z"/>
	<path fill="#FFFFFF" d="M21.164,38.498l-3.456,16.321c-0.096,0.528-0.191,1.056-0.191,1.488c0,1.056,0.479,1.824,2.399,1.824
		c1.921,0,4.417-2.688,6.337-4.225h1.632c-2.208,2.208-7.632,8.593-11.377,8.593c-3.696,0-6-1.633-6-5.232
		c0-0.721,0.096-1.536,0.288-2.448l3.456-16.321H21.164z M18.956,28.321c2.112,0,3.841,1.728,3.841,3.84
		c0,2.112-1.729,3.792-3.841,3.792s-3.792-1.68-3.792-3.792C15.164,30.049,16.844,28.321,18.956,28.321z"/>
	<path fill="#FFFFFF" d="M37.101,41.906c0-1.152-0.72-1.632-1.775-1.632c-4.032,0-6.625,7.825-6.625,13.009
		c0,2.832,0.576,5.137,3.504,5.137c3.409,0,6.145-2.017,8.354-4.513h1.632C39.885,56.5,37.293,62.5,28.796,62.5
		c-3.984,0-6.576-2.208-6.576-7.873c0-7.008,3.024-16.273,12.337-16.273c2.593,0,5.28,0.672,5.28,3.312
		c0,0.528-0.048,0.96-0.239,1.584c-0.24-0.144-0.625-0.288-1.2-0.288c-0.433,0-0.912,0.096-1.536,0.288
		C37.005,42.722,37.101,42.29,37.101,41.906z"/>
	<path fill="#FFFFFF" d="M59.564,54.819c-0.144,0.576-0.24,1.104-0.24,1.536c0,1.057,0.528,1.776,2.4,1.776
		c1.92,0,4.416-2.688,6.337-4.225h1.632c-2.208,2.208-7.633,8.593-11.377,8.593s-5.952-1.633-5.952-5.232
		c0-0.768,0.096-1.536,0.288-2.448l1.823-8.641c0.097-0.432,0.145-0.864,0.145-1.248c0-1.729-0.912-2.833-2.208-2.833
		c-1.152,0-2.017,0.336-2.977,1.008L45.308,62.5h-6.913l6.961-32.643l7.104-0.96l-2.593,12.145c1.969-1.392,4.177-2.544,6.241-2.544
		c2.592,0,5.521,2.784,5.521,6c0,0.384,0,0.768-0.097,1.152L59.564,54.819z"/>
	<path fill="#FFFFFF" d="M87.356,38.498L83.9,54.819c-0.097,0.528-0.192,1.056-0.192,1.488c0,1.056,0.48,1.824,2.4,1.824
		s4.416-2.688,6.337-4.225h1.632C91.869,56.115,86.444,62.5,82.7,62.5c-3.12,0-5.232-1.152-5.856-3.648
		c-1.44,1.969-3.601,3.937-6.528,3.937c-4.608,0-5.953-3.265-5.953-6.097c0-8.257,2.977-18.146,12.577-18.146
		c1.152,0,2.353,0.48,3.217,1.2l0.288-1.248H87.356z M70.843,55.396c0,2.88,1.584,3.408,2.784,3.408c1.104,0,2.16-1.056,3.072-2.4
		c0.049-0.479,0.145-1.008,0.288-1.584l2.688-12.721c-0.768-0.672-1.68-0.864-2.353-0.864
		C73.724,41.234,70.843,48.867,70.843,55.396z"/>
	<path fill="#FFFFFF" d="M98.924,59.044c2.353,0,6.385-2.784,8.064-6.337h2.16c-2.736,4.944-7.345,9.793-13.537,9.793
		c-4.608,0-7.104-3.504-7.104-7.633c0-6.096,2.593-16.801,11.329-16.801c3.937,0,6.145,1.632,6.145,4.992
		c0,5.857-6.288,9.217-10.849,9.793c-0.097,0.768-0.145,1.488-0.145,2.064C94.987,58.084,97.052,59.044,98.924,59.044z
		 M101.42,40.61c-2.688,0-4.896,5.424-5.904,9.937c4.416-0.048,7.537-3.84,7.585-7.249C103.101,42.29,102.86,40.61,101.42,40.61z"/>
	<path fill="#FFFFFF" d="M113.322,54.819c-0.144,0.576-0.239,1.104-0.239,1.632c0,1.008,0.384,1.776,1.728,1.776
		c0.336,0,0.864,0,1.248-0.144c-1.344,4.128-3.36,4.416-4.992,4.416c-3.408,0-4.896-2.256-4.896-5.28c0-0.769,0.097-1.585,0.288-2.4
		l5.28-24.962l7.104-0.96L113.322,54.819z"/>
	<path fill="#FFFFFF" d="M164.828,26.593L157.195,62.5h-6.912c-2.257,0-2.784-4.225-2.784-9.793c0-4.704,0.336-10.321,0.336-15.313
		c0-1.488,0-2.928-0.097-4.272l-6.24,29.378h-6.912l6.96-32.643c-4.224,1.776-6.721,5.424-6.721,10.513
		c0,2.448,0.624,2.832,0.673,3.264c-3.312,0-5.137-1.2-5.137-4.656c0-6.385,8.833-12.481,16.85-12.481
		c4.032,0,4.368,2.064,4.368,8.929c0,5.041-0.528,11.329-0.528,15.985c0,2.208,0.145,4.08,0.48,5.232l6.385-30.051H164.828z"/>
	<path fill="#FFFFFF" d="M186.571,38.498l-3.456,16.321c-0.096,0.528-0.192,1.056-0.192,1.488c0,1.056,0.48,1.824,2.4,1.824
		s4.417-2.688,6.337-4.225h1.632c-2.208,2.208-7.633,8.593-11.377,8.593c-3.265,0-5.473-1.248-5.904-4.032
		c-2.257,2.112-4.849,4.032-6.913,4.032c-3.696,0-6-1.633-6-5.232c0-0.721,0.096-1.536,0.288-2.448l3.456-16.321h6.912
		l-3.456,16.321c-0.096,0.528-0.191,1.056-0.191,1.488c0,1.056,0.479,1.824,2.399,1.824c1.009,0,2.209-0.769,3.409-1.729
		c0.048-0.479,0.144-1.008,0.287-1.584l3.457-16.321H186.571z"/>
	<path fill="#FFFFFF" d="M210.618,38.498l-4.512,21.266c3.072-1.584,5.808-3.744,7.393-7.345l-0.192,3.792
		c-0.624,3.121-3.984,4.896-7.776,6.289l-0.816,3.84c-1.44,6.865-5.473,8.161-8.641,8.161c-2.929,0-5.377-1.536-5.377-4.656
		c0-3.937,3.505-5.521,7.825-7.104l0.479-2.16c-1.439,1.296-3.312,2.304-5.521,2.304c-4.608,0-5.952-3.888-5.952-6.72
		c0-6.625,2.544-17.618,11.857-17.618c1.728,0,3.12,0.96,3.792,2.256l0.528-2.304H210.618z M194.969,70.757
		c0.96,0,2.209-1.44,2.784-4.272l0.288-1.439c-2.736,1.055-4.704,2.256-4.704,4.127C193.337,69.845,193.913,70.757,194.969,70.757z
		 M193.433,55.252c0,2.304,1.393,3.023,3.505,3.023c0.96,0,1.968-0.72,2.88-1.68l2.832-13.297c-0.768-1.44-1.92-2.064-2.736-2.064
		C195.257,41.234,193.433,51.123,193.433,55.252z"/>
	<path fill="#FFFFFF" d="M222.041,59.044c2.353,0,6.385-2.784,8.064-6.337h2.16c-2.736,4.944-7.345,9.793-13.537,9.793
		c-4.608,0-7.104-3.504-7.104-7.633c0-6.096,2.593-16.801,11.329-16.801c3.937,0,6.145,1.632,6.145,4.992
		c0,5.857-6.288,9.217-10.849,9.793c-0.097,0.768-0.145,1.488-0.145,2.064C218.104,58.084,220.169,59.044,222.041,59.044z
		 M224.537,40.61c-2.688,0-4.896,5.424-5.904,9.937c4.416-0.048,7.537-3.84,7.585-7.249C226.218,42.29,225.978,40.61,224.537,40.61z
		"/>
	<path fill="#FFFFFF" d="M249.209,54.819c-0.144,0.528-0.24,1.056-0.24,1.536c0,1.057,0.528,1.776,2.4,1.776
		c1.921,0,2.641-1.488,4.561-3.024h1.632c-2.208,2.208-5.856,7.393-9.601,7.393s-5.952-1.633-5.952-5.232
		c0-0.768,0.096-1.536,0.288-2.448l1.824-8.641c0.096-0.432,0.144-0.864,0.144-1.248c0-1.729-0.912-2.833-2.208-2.833
		c-1.152,0-2.017,0.336-3.024,1.008l-4.08,19.394h-6.913l5.089-24.002h6.912l-0.575,2.592c1.968-1.44,4.176-2.592,6.288-2.592
		c2.592,0,5.521,2.784,5.521,6c0,0.384,0,0.768-0.096,1.152L249.209,54.819z"/>
	<path fill="#FFFFFF" d="M260.296,54.819c-0.144,0.576-0.24,1.152-0.24,1.681c0,1.008,0.385,1.728,1.681,1.728
		c0.336,0,0.864,0,1.248-0.144c-1.344,4.128-3.456,4.416-5.089,4.416c-3.36,0-4.8-2.208-4.8-5.185c0-0.769,0.096-1.632,0.288-2.496
		l3.072-14.401h-1.585l0.385-1.92h1.584l1.44-6.625l7.104-0.96c0,0-0.721,3.265-1.633,7.585h2.881l-0.385,1.92h-2.88L260.296,54.819
		z"/>
</g>
</svg>
